<svg width="40" height="40" viewBox="0 0 40 40" fill="none" xmlns="http://www.w3.org/2000/svg">
<circle cx="20" cy="20" r="17" fill="#B2BBFF"/>
<circle cx="20" cy="20" r="18.5" stroke="#E17AFE" stroke-opacity="0.7" stroke-width="3"/>
<path d="M18.1531 23.4723V23.3805C18.1633 22.4066 18.2653 21.6316 18.4592 21.0554C18.6531 20.4793 18.9286 20.0127 19.2857 19.6558C19.6429 19.2989 20.0714 18.97 20.5714 18.6692C20.8724 18.4857 21.1429 18.269 21.3827 18.0191C21.6224 17.7642 21.8112 17.471 21.949 17.1396C22.0918 16.8082 22.1633 16.441 22.1633 16.0382C22.1633 15.5386 22.0459 15.1052 21.8112 14.738C21.5765 14.3709 21.2628 14.088 20.8699 13.8891C20.477 13.6902 20.0408 13.5908 19.5612 13.5908C19.1429 13.5908 18.7398 13.6775 18.352 13.8509C17.9643 14.0242 17.6403 14.297 17.3801 14.6692C17.1199 15.0414 16.9694 15.5284 16.9286 16.13H15C15.0408 15.2632 15.2653 14.5214 15.6735 13.9044C16.0867 13.2874 16.6301 12.8158 17.3036 12.4895C17.9821 12.1632 18.7347 12 19.5612 12C20.4592 12 21.2398 12.1785 21.9031 12.5354C22.5714 12.8923 23.0867 13.3818 23.449 14.0038C23.8163 14.6259 24 15.3346 24 16.13C24 16.6909 23.9133 17.1982 23.7398 17.652C23.5714 18.1058 23.3265 18.5112 23.0051 18.8681C22.6888 19.225 22.3061 19.5411 21.8571 19.8164C21.4082 20.0969 21.0485 20.3926 20.7781 20.7036C20.5077 21.0096 20.3112 21.3741 20.1888 21.7973C20.0663 22.2205 20 22.7482 19.9898 23.3805V23.4723H18.1531ZM19.1327 28C18.7551 28 18.4311 27.8649 18.1607 27.5946C17.8903 27.3244 17.7551 27.0006 17.7551 26.6233C17.7551 26.246 17.8903 25.9222 18.1607 25.652C18.4311 25.3818 18.7551 25.2467 19.1327 25.2467C19.5102 25.2467 19.8342 25.3818 20.1046 25.652C20.375 25.9222 20.5102 26.246 20.5102 26.6233C20.5102 26.8732 20.4464 27.1026 20.3189 27.3117C20.1964 27.5207 20.0306 27.689 19.8214 27.8164C19.6173 27.9388 19.3878 28 19.1327 28Z" fill="#E17AFE"/>
</svg>
