<svg width="131" height="34" viewBox="0 0 131 34" fill="none" xmlns="http://www.w3.org/2000/svg">
<path d="M20.1997 5.222H6.80196V13.7733H18.0011V18.8585H6.80196V29.8726C6.80196 31.2712 6.80196 34 6.80196 34C6.80196 34 4.40488 34 3.41245 34C2.40476 34 0.000200555 34 0.000200555 34C0.000200555 34 4.18872e-05 31.256 4.18872e-05 29.8726V4.15023C4.18872e-05 3.17729 0 4.67598e-05 0 4.67598e-05L1.99999 2.75373e-05C1.99999 2.75373e-05 3.20633 0 4.16822 0H20.1997C21.2837 0 23 3.35872e-05 23 3.35872e-05V5.222C23 5.222 21.2837 5.222 20.1997 5.222Z" fill="white"/>
<path d="M93.5 34H101.708H96.5H93.5L90.3488 33.9544C88.8373 33.9544 87.4784 33.6427 86.2722 33.0194C85.0813 32.3962 84.1576 31.5372 83.5011 30.4427C82.7224 29.1201 82.3331 27.2198 82.3331 24.7418V12.4051C82.3331 11.1585 82.3331 9 82.3331 9C82.3331 9 84.5686 9 85.5 9C86.4466 9 88.5853 9 88.5853 9V22.3702C88.5853 23.8144 88.7075 25.0306 88.9518 26.0188C89.1961 26.9917 89.6312 27.7594 90.2572 28.3219C90.8985 28.8692 91.7611 29.1429 92.8451 29.1429C93.8986 29.1429 95.0687 29.1233 96 28.5C96.9314 27.8767 97.5725 27.0034 98 26C98.5 24.5 98.3874 22.9555 98.3874 19.9759V12.4051C98.3874 11.1737 98.3874 9 98.3874 9H104.617C104.617 9 104.617 11.1585 104.617 12.4051V30.4427C104.617 31.6284 104.617 34 104.617 34C104.617 34 102.563 34 101.708 34C100.853 34 96.5 34 96.5 34H93.5Z" fill="white"/>
<path d="M131 25.8592C131 27.577 130.58 29.0516 129.74 30.283C128.901 31.4992 127.656 32.4266 126.007 33.0651C124.374 33.6884 122.381 34 120.03 34C117.786 34 115.862 33.6579 114.259 32.9738C112.655 32.2897 111.472 31.4384 110.709 30.4199C109.945 29.3861 109.564 28.3523 109.564 27.3186C109.564 26.6345 109.808 26.0492 110.297 25.5627C110.785 25.0762 111.403 24.833 112.152 24.833C112.808 24.833 113.312 24.9926 113.663 25.3119C114.014 25.6311 114.35 26.0796 114.671 26.6573C115.312 27.767 116.075 28.5956 116.961 29.1429C117.862 29.6901 119.083 29.9638 120.625 29.9638C121.877 29.9638 122.9 29.6901 123.694 29.1429C124.503 28.5804 124.908 27.9419 124.908 27.2274C124.908 26.1328 124.488 25.3347 123.648 24.833C122.824 24.3313 121.457 23.8524 119.549 23.3964C117.396 22.8643 115.64 22.3094 114.281 21.7317C112.938 21.1388 111.862 20.3635 111.052 19.4058C110.243 18.448 109.838 17.2698 109.838 15.8712C109.838 14.6246 110.213 13.4465 110.961 12.3367C111.709 11.2269 112.808 10.3452 114.259 9.69148C115.724 9.02258 117.488 8.68813 119.549 8.68813C121.167 8.68813 122.618 8.85535 123.9 9.1898C125.198 9.52425 126.275 9.97272 127.13 10.5352C128 11.0977 128.656 11.721 129.099 12.4051C129.557 13.0892 129.786 13.7581 129.786 14.4118C129.786 15.1263 129.542 15.7116 129.053 16.1677C128.58 16.6237 127.901 16.8518 127.015 16.8518C126.374 16.8518 125.824 16.6693 125.366 16.3045C124.923 15.9396 124.412 15.3924 123.832 14.6626C123.358 14.0545 122.801 13.5681 122.16 13.2032C121.519 12.8384 120.648 12.6559 119.549 12.6559C118.419 12.6559 117.48 12.8992 116.732 13.3856C115.984 13.8569 115.61 14.4498 115.61 15.1643C115.61 15.818 115.885 16.3577 116.434 16.7834C116.984 17.1938 117.724 17.5359 118.656 17.8095C119.587 18.0832 120.87 18.4176 122.503 18.8129C124.442 19.2841 126.023 19.8466 127.244 20.5003C128.481 21.154 129.412 21.9294 130.038 22.8263C130.679 23.708 131 24.719 131 25.8592Z" fill="white"/>
<path d="M37.3607 34L65.7537 33.955C67.563 33.955 69.1898 33.7152 70.6341 33.2356C72.0785 32.756 73.272 32.1265 74.2146 31.3471C75.1724 30.5528 75.5481 29.9398 76.0042 29.0705C76.4755 28.2012 77 25.8913 77 25.1269H72.0211C71.5232 27.3228 70.5274 28.0846 69.5316 28.5775C68.6498 29.1471 67.2285 29.3912 65.9818 29.3912C65.0543 29.3912 64.2029 29.2188 63.4275 28.8741C62.6521 28.5144 61.9908 27.9973 61.4435 27.3228C60.8961 26.6334 60.478 25.8091 60.1891 24.8498C59.9003 23.8756 59.7558 22.8115 59.7558 21.6574C59.7558 19.1993 60.3184 17.2659 61.4435 15.857C62.5685 14.4332 63.4688 14.1697 65.0505 13.789C65.7729 13.6151 67.6952 13.5116 68.5358 13.789C70.3619 14.3917 71.0253 14.7749 72.0211 17.2397H77C77 15.7608 76.4724 14.6805 75.9706 13.8561C75.4841 13.0168 74.7695 12.2299 73.8269 11.4955C72.8995 10.7611 71.7592 10.1616 70.4061 9.69694C69.0681 9.23231 67.5934 9 65.9818 9L37.3607 9.04496C35.5058 9.04496 33.8106 9.34472 32.275 9.94424C30.7394 10.5288 29.4319 11.3681 28.3524 12.4622C27.273 13.5564 26.4444 14.8753 25.8666 16.4191C25.2889 17.9628 25 19.664 25 21.5225C25 23.366 25.2813 25.0522 25.8438 26.5809C26.4216 28.0947 27.2578 29.4137 28.3524 30.5378C29.4623 31.6469 30.7698 32.5012 32.275 33.1007C33.7802 33.7002 35.4754 34 37.3607 34Z" fill="white"/>
</svg>
