<svg width="34" height="34" viewBox="0 0 34 34" fill="none" xmlns="http://www.w3.org/2000/svg">
<path d="M29.9892 18.666C30.0591 18.122 30.1115 17.578 30.1115 17C30.1115 16.422 30.0591 15.878 29.9892 15.334L33.6768 12.529C34.0089 12.274 34.0963 11.815 33.8866 11.441L30.3912 5.559C30.2339 5.287 29.9368 5.134 29.6222 5.134C29.5173 5.134 29.4125 5.151 29.3251 5.185L24.9733 6.885C24.0645 6.205 23.0858 5.644 22.0197 5.219L21.3556 0.714C21.3032 0.306 20.9362 0 20.4992 0H13.5085C13.0716 0 12.7045 0.306 12.6521 0.714L11.988 5.219C10.9219 5.644 9.94319 6.222 9.03439 6.885L4.68264 5.185C4.57778 5.151 4.47292 5.134 4.36806 5.134C4.07095 5.134 3.77384 5.287 3.61655 5.559L0.12117 11.441C-0.10603 11.815 -0.00116798 12.274 0.330893 12.529L4.01852 15.334C3.94861 15.878 3.89618 16.439 3.89618 17C3.89618 17.561 3.94861 18.122 4.01852 18.666L0.330893 21.471C-0.00116798 21.726 -0.0885527 22.185 0.12117 22.559L3.61655 28.441C3.77384 28.713 4.07095 28.866 4.38554 28.866C4.4904 28.866 4.59526 28.849 4.68264 28.815L9.03439 27.115C9.94319 27.795 10.9219 28.356 11.988 28.781L12.6521 33.286C12.7045 33.694 13.0716 34 13.5085 34H20.4992C20.9362 34 21.3032 33.694 21.3556 33.286L22.0197 28.781C23.0858 28.356 24.0645 27.778 24.9733 27.115L29.3251 28.815C29.4299 28.849 29.5348 28.866 29.6397 28.866C29.9368 28.866 30.2339 28.713 30.3912 28.441L33.8866 22.559C34.0963 22.185 34.0089 21.726 33.6768 21.471L29.9892 18.666ZM26.5288 15.759C26.5987 16.286 26.6162 16.643 26.6162 17C26.6162 17.357 26.5812 17.731 26.5288 18.241L26.2841 20.162L27.8395 21.352L29.727 22.78L28.5037 24.837L26.2841 23.97L24.4665 23.256L22.8936 24.412C22.1421 24.956 21.4255 25.364 20.709 25.653L18.8564 26.384L18.5768 28.305L18.2272 30.6H15.7805L15.4484 28.305L15.1688 26.384L13.3162 25.653C12.5647 25.347 11.8657 24.956 11.1666 24.446L9.57618 23.256L7.72362 23.987L5.50406 24.854L4.28067 22.797L6.16818 21.369L7.72362 20.179L7.47895 18.258C7.42652 17.731 7.39156 17.34 7.39156 17C7.39156 16.66 7.42652 16.269 7.47895 15.759L7.72362 13.838L6.16818 12.648L4.28067 11.22L5.50406 9.163L7.72362 10.03L9.54122 10.744L11.1141 9.588C11.8657 9.044 12.5822 8.636 13.2988 8.347L15.1513 7.616L15.4309 5.695L15.7805 3.4H18.2098L18.5418 5.695L18.8215 7.616L20.674 8.347C21.4255 8.653 22.1246 9.044 22.8237 9.554L24.4141 10.744L26.2666 10.013L28.4862 9.146L29.7096 11.203L27.8395 12.648L26.2841 13.838L26.5288 15.759ZM17.0039 10.2C13.1415 10.2 10.0131 13.243 10.0131 17C10.0131 20.757 13.1415 23.8 17.0039 23.8C20.8663 23.8 23.9946 20.757 23.9946 17C23.9946 13.243 20.8663 10.2 17.0039 10.2ZM17.0039 20.4C15.0814 20.4 13.5085 18.87 13.5085 17C13.5085 15.13 15.0814 13.6 17.0039 13.6C18.9263 13.6 20.4992 15.13 20.4992 17C20.4992 18.87 18.9263 20.4 17.0039 20.4Z" fill="#E8E9EE" fill-opacity="0.7"/>
</svg>
