<svg width="34" height="34" viewBox="0 0 34 34" fill="none" xmlns="http://www.w3.org/2000/svg">
<path d="M30.2222 0H3.77778C1.7 0 0 1.7 0 3.77778V30.2222C0 32.3 1.7 34 3.77778 34H30.2222C32.3 34 34 32.3 34 30.2222V3.77778C34 1.7 32.3 0 30.2222 0ZM30.2222 30.2222H3.77778V3.77778H30.2222V30.2222ZM7.55556 15.1111C7.55556 14.0679 8.40124 13.2222 9.44444 13.2222C10.4876 13.2222 11.3333 14.0679 11.3333 15.1111V24.5556C11.3333 25.5988 10.4876 26.4444 9.44444 26.4444C8.40124 26.4444 7.55556 25.5988 7.55556 24.5556V15.1111ZM15.1111 9.44444C15.1111 8.40124 15.9568 7.55556 17 7.55556C18.0432 7.55556 18.8889 8.40124 18.8889 9.44444V24.5556C18.8889 25.5988 18.0432 26.4444 17 26.4444C15.9568 26.4444 15.1111 25.5988 15.1111 24.5556V9.44444ZM22.6667 20.7778C22.6667 19.7346 23.5124 18.8889 24.5556 18.8889C25.5988 18.8889 26.4444 19.7346 26.4444 20.7778V24.5556C26.4444 25.5988 25.5988 26.4444 24.5556 26.4444C23.5124 26.4444 22.6667 25.5988 22.6667 24.5556V20.7778Z" fill="#E8E9EE" fill-opacity="0.7"/>
</svg>
